<svg width="512" height="512" viewBox="0 0 512 512" fill="none" xmlns="http://www.w3.org/2000/svg">
<path d="M256 64C224.937 64 200 88.9373 200 120C200 151.063 224.937 176 256 176C287.063 176 312 151.063 312 120C312 88.9373 287.063 64 256 64Z" fill="white"/>
<path d="M328 192H184C179.582 192 176 195.582 176 200V224C176 241.673 161.673 256 144 256V320H368V256C350.327 256 336 241.673 336 224V200C336 195.582 332.418 192 328 192Z" fill="white"/>
<path d="M112 336H400V384C400 392.837 392.837 400 384 400H128C119.163 400 112 392.837 112 384V336Z" fill="white"/>
</svg>
