<svg xmlns="http://www.w3.org/2000/svg" viewBox="0 0 45 45" width="512" height="512" fill="white">
    <g>
        <path d="M 22.5,11.63 L 22.5,6 M 20,8.63 L 25,8.63 M 22.5,25 C 22.5,25 27,17.5 25.5,14.5 C 25.5,14.5 24.5,12 22.5,12 C 20.5,12 19.5,14.5 19.5,14.5 C 18,17.5 22.5,25 22.5,25" style="fill:none; stroke:white; stroke-width:1.5; stroke-linecap:round; stroke-linejoin:round;"/>
        <path d="M 22.5,39.5 L 22.5,39.5 C 22.5,39.5 22.5,39.5 22.5,39.5 L 22.5,39.5" style="fill:none; stroke:white; stroke-width:1.5; stroke-linecap:round; stroke-linejoin:round;"/>
        <path d="M 12.5,37 L 12.5,37 C 12.5,37 12.5,37 12.5,37 L 12.5,37" style="fill:none; stroke:white; stroke-width:1.5; stroke-linecap:round; stroke-linejoin:round;"/>
        <path d="M 32.5,37 L 32.5,37 C 32.5,37 32.5,37 32.5,37 L 32.5,37" style="fill:none; stroke:white; stroke-width:1.5; stroke-linecap:round; stroke-linejoin:round;"/>
        <path d="M 11.5,37 C 17,40.5 27.5,40.5 32.5,37 L 32.5,30 C 32.5,30 41.5,25.5 38.5,19.5 C 34.5,13 25,16 22.5,25 C 20,16 10.5,13 6.5,19.5 C 3.5,25.5 11.5,30 11.5,30 L 11.5,37" style="fill:white; stroke:white; stroke-width:1.5; stroke-linecap:round; stroke-linejoin:round;"/>
        <path d="M 11.5,30 C 17,27 27.5,27 32.5,30" style="fill:none; stroke:white; stroke-width:1.5; stroke-linecap:round; stroke-linejoin:round;"/>
        <path d="M 11.5,37 C 17,34.5 27.5,34.5 32.5,37" style="fill:none; stroke:white; stroke-width:1.5; stroke-linecap:round; stroke-linejoin:round;"/>
        <path d="M 12,38.5 L 32,38.5" style="fill:none; stroke:white; stroke-width:1.5; stroke-linecap:round; stroke-linejoin:round;"/>
    </g>
</svg>
